<mxfile host="Electron" modified="2023-12-22T08:23:38.024Z" agent="Mozilla/5.0 (Windows NT 10.0; Win64; x64) AppleWebKit/537.36 (KHTML, like Gecko) draw.io/21.7.5 Chrome/114.0.5735.289 Electron/25.8.1 Safari/537.36" etag="_OEP9S1hpJ2KFY8CM5eJ" version="21.7.5" type="device">
  <diagram name="Page-1" id="4QxoGGscY7Ei_fDzng9z">
    <mxGraphModel dx="1868" dy="874" grid="1" gridSize="10" guides="1" tooltips="1" connect="1" arrows="1" fold="1" page="1" pageScale="1" pageWidth="1169" pageHeight="827" math="0" shadow="0">
      <root>
        <mxCell id="0" />
        <mxCell id="1" parent="0" />
        <mxCell id="JCeTv6zf6--ARJBFhtu1-3" style="edgeStyle=orthogonalEdgeStyle;rounded=0;orthogonalLoop=1;jettySize=auto;html=1;exitX=1;exitY=0.5;exitDx=0;exitDy=0;" edge="1" parent="1" source="JCeTv6zf6--ARJBFhtu1-1" target="JCeTv6zf6--ARJBFhtu1-2">
          <mxGeometry relative="1" as="geometry" />
        </mxCell>
        <mxCell id="JCeTv6zf6--ARJBFhtu1-1" value="START" style="rounded=1;whiteSpace=wrap;html=1;absoluteArcSize=1;arcSize=14;strokeWidth=2;" vertex="1" parent="1">
          <mxGeometry x="40" y="40" width="100" height="100" as="geometry" />
        </mxCell>
        <mxCell id="JCeTv6zf6--ARJBFhtu1-5" value="" style="edgeStyle=orthogonalEdgeStyle;rounded=0;orthogonalLoop=1;jettySize=auto;html=1;" edge="1" parent="1" source="JCeTv6zf6--ARJBFhtu1-2" target="JCeTv6zf6--ARJBFhtu1-4">
          <mxGeometry relative="1" as="geometry" />
        </mxCell>
        <mxCell id="JCeTv6zf6--ARJBFhtu1-2" value="argc, argv[]" style="shape=parallelogram;html=1;strokeWidth=2;perimeter=parallelogramPerimeter;whiteSpace=wrap;rounded=1;arcSize=12;size=0.23;" vertex="1" parent="1">
          <mxGeometry x="180" y="60" width="100" height="60" as="geometry" />
        </mxCell>
        <mxCell id="JCeTv6zf6--ARJBFhtu1-7" value="" style="edgeStyle=orthogonalEdgeStyle;rounded=0;orthogonalLoop=1;jettySize=auto;html=1;" edge="1" parent="1" source="JCeTv6zf6--ARJBFhtu1-4" target="JCeTv6zf6--ARJBFhtu1-6">
          <mxGeometry relative="1" as="geometry" />
        </mxCell>
        <mxCell id="JCeTv6zf6--ARJBFhtu1-4" value="parser::Console" style="whiteSpace=wrap;html=1;strokeWidth=2;rounded=1;arcSize=12;" vertex="1" parent="1">
          <mxGeometry x="320" y="60" width="200" height="60" as="geometry" />
        </mxCell>
        <mxCell id="JCeTv6zf6--ARJBFhtu1-9" value="" style="edgeStyle=orthogonalEdgeStyle;rounded=0;orthogonalLoop=1;jettySize=auto;html=1;" edge="1" parent="1" source="JCeTv6zf6--ARJBFhtu1-6" target="JCeTv6zf6--ARJBFhtu1-8">
          <mxGeometry relative="1" as="geometry">
            <Array as="points">
              <mxPoint x="660" y="160" />
              <mxPoint x="140" y="160" />
            </Array>
          </mxGeometry>
        </mxCell>
        <mxCell id="JCeTv6zf6--ARJBFhtu1-12" style="edgeStyle=orthogonalEdgeStyle;rounded=0;orthogonalLoop=1;jettySize=auto;html=1;exitX=0.5;exitY=1;exitDx=0;exitDy=0;" edge="1" parent="1" source="JCeTv6zf6--ARJBFhtu1-6" target="JCeTv6zf6--ARJBFhtu1-10">
          <mxGeometry relative="1" as="geometry" />
        </mxCell>
        <mxCell id="JCeTv6zf6--ARJBFhtu1-6" value="data::console::Arguments" style="shape=parallelogram;perimeter=parallelogramPerimeter;whiteSpace=wrap;html=1;fixedSize=1;strokeWidth=2;rounded=1;arcSize=12;" vertex="1" parent="1">
          <mxGeometry x="560" y="60" width="200" height="60" as="geometry" />
        </mxCell>
        <mxCell id="JCeTv6zf6--ARJBFhtu1-11" value="" style="edgeStyle=orthogonalEdgeStyle;rounded=0;orthogonalLoop=1;jettySize=auto;html=1;" edge="1" parent="1" source="JCeTv6zf6--ARJBFhtu1-8" target="JCeTv6zf6--ARJBFhtu1-10">
          <mxGeometry relative="1" as="geometry" />
        </mxCell>
        <mxCell id="JCeTv6zf6--ARJBFhtu1-8" value="utils::Settings" style="rounded=1;whiteSpace=wrap;html=1;strokeWidth=2;arcSize=12;" vertex="1" parent="1">
          <mxGeometry x="40" y="200" width="200" height="60" as="geometry" />
        </mxCell>
        <mxCell id="JCeTv6zf6--ARJBFhtu1-10" value="task::TaskFakctory" style="whiteSpace=wrap;html=1;rounded=1;strokeWidth=2;arcSize=12;" vertex="1" parent="1">
          <mxGeometry x="280" y="200" width="200" height="60" as="geometry" />
        </mxCell>
      </root>
    </mxGraphModel>
  </diagram>
</mxfile>
